<?xml version="1.0" standalone="no"?>
<!DOCTYPE svg PUBLIC "-//W3C//DTD SVG 20010904//EN"
 "http://www.w3.org/TR/2001/REC-SVG-20010904/DTD/svg10.dtd">
<svg version="1.0" xmlns="http://www.w3.org/2000/svg"
 width="736.000000pt" height="736.000000pt" viewBox="0 0 736.000000 736.000000"
 preserveAspectRatio="xMidYMid meet">

<g transform="translate(0.000000,736.000000) scale(0.100000,-0.100000)"
fill="#000000" stroke="none">
<path d="M3395 7216 c-97 -31 -160 -84 -150 -125 7 -27 102 -131 120 -131 6 0
18 9 28 20 16 19 15 22 -19 66 -19 26 -34 54 -32 62 5 27 69 55 128 56 54 1
55 0 73 -35 17 -36 17 -36 -14 -99 -45 -91 -38 -129 33 -192 29 -26 60 -48 69
-48 9 0 33 13 54 30 56 44 162 91 220 97 69 7 89 34 43 57 -17 9 -56 16 -86
16 -47 0 -64 -6 -119 -41 -82 -52 -138 -72 -151 -56 -21 27 -22 75 -1 101 26
34 47 131 33 154 -6 9 -30 32 -53 50 -48 36 -102 42 -176 18z"/>
<path d="M3280 6841 c-54 -5 -79 -14 -147 -55 -45 -27 -103 -66 -130 -88 -26
-21 -56 -41 -65 -44 -10 -4 -18 -15 -18 -26 0 -38 60 -146 118 -212 31 -35 86
-99 122 -141 189 -221 306 -337 353 -349 14 -3 36 -2 49 3 13 6 17 10 8 11
-26 2 52 31 145 55 111 28 129 35 188 73 91 58 155 153 143 213 -16 82 -152
198 -216 184 -17 -4 -30 -8 -30 -10 0 -17 34 -77 49 -84 41 -22 55 -120 22
-154 -21 -21 -193 -97 -221 -97 -11 0 -45 -9 -75 -19 l-55 -19 -40 21 c-77 42
-167 133 -226 230 -31 50 -67 102 -80 114 -44 43 -44 146 0 180 12 10 46 29
74 43 28 14 49 30 47 37 -12 34 92 56 129 28 11 -8 25 -15 32 -15 7 0 40 -16
73 -35 32 -19 65 -35 73 -35 7 0 19 12 25 27 20 41 -4 66 -112 119 -101 49
-132 55 -235 45z"/>
<path d="M2567 6479 c-98 -23 -186 -97 -187 -155 l0 -32 -59 19 c-87 27 -182
19 -258 -21 -32 -17 -68 -40 -79 -51 -21 -19 -24 -20 -52 -5 -37 19 -80 20
-133 4 -33 -9 -38 -14 -33 -32 24 -76 43 -96 90 -96 48 0 68 -13 106 -68 18
-26 68 -90 113 -143 87 -105 147 -185 240 -319 105 -151 142 -190 180 -190 27
0 35 5 45 29 14 34 -1 69 -54 129 -18 20 -56 78 -85 127 -30 50 -86 128 -125
174 -108 127 -135 164 -136 184 0 34 30 76 73 102 72 41 115 33 187 -36 75
-72 357 -391 386 -435 21 -32 35 -43 61 -47 48 -8 61 0 69 39 5 30 0 41 -47
101 -29 38 -65 79 -79 93 -15 14 -41 47 -58 74 -17 27 -46 65 -64 85 -70 76
-138 193 -138 233 1 44 79 108 132 108 83 0 238 -132 380 -325 131 -177 146
-195 171 -195 24 0 51 14 53 27 0 4 4 16 8 25 17 38 -114 222 -244 343 -41 38
-111 106 -155 150 -108 108 -183 133 -308 104z"/>
<path d="M939 5907 c-25 -18 -68 -50 -94 -72 -50 -41 -97 -71 -345 -221 -80
-48 -176 -107 -213 -132 -38 -24 -100 -55 -137 -69 l-68 -25 5 -37 c13 -93 29
-118 91 -146 44 -19 110 -77 135 -117 11 -18 59 -100 107 -183 48 -82 110
-188 138 -235 29 -47 57 -101 63 -120 21 -68 104 -225 139 -260 19 -19 43 -47
52 -62 28 -43 49 -50 100 -32 29 10 56 29 78 57 55 68 120 125 192 167 36 22
72 40 78 40 17 0 67 28 113 63 63 48 199 111 315 147 83 25 111 39 141 68 43
43 84 122 75 145 -7 19 -39 31 -55 21 -6 -3 -24 3 -40 15 -29 21 -87 28 -105
12 -5 -4 -24 -13 -43 -20 -51 -17 -328 -184 -395 -239 -32 -26 -70 -53 -85
-61 -14 -7 -63 -36 -108 -62 -55 -33 -107 -55 -154 -65 -65 -15 -73 -15 -107
0 -29 13 -41 28 -56 64 -11 26 -34 70 -51 98 -46 73 -61 118 -49 151 11 32
103 91 343 220 27 14 51 36 60 55 14 29 14 32 -6 45 -18 12 -20 18 -11 33 33
52 -57 72 -109 24 -68 -63 -395 -255 -410 -241 -8 8 -93 157 -134 235 -49 93
-50 119 -3 152 20 14 44 32 53 40 89 80 327 213 476 266 45 17 134 71 152 94
24 31 26 71 4 100 -17 24 -19 33 -10 59 23 67 -44 82 -122 28z"/>
<path d="M1725 5921 c-17 -4 -69 -37 -115 -72 -47 -35 -130 -95 -185 -132 -55
-37 -115 -81 -133 -98 -31 -28 -33 -33 -25 -67 12 -52 43 -53 124 -5 107 64
158 96 233 146 39 26 93 62 119 79 65 41 88 106 51 142 -17 17 -23 18 -69 7z"/>
<path d="M2029 5656 c-2 -2 -30 -7 -63 -10 -66 -6 -126 -38 -126 -67 0 -11 -7
-19 -17 -19 -17 0 -134 -65 -183 -101 -14 -11 -42 -28 -62 -39 -21 -11 -45
-28 -55 -38 -10 -10 -39 -35 -65 -55 -51 -41 -55 -52 -36 -104 19 -51 41 -45
205 55 45 28 91 53 103 57 21 7 181 99 275 160 35 22 58 47 75 80 l24 47 -23
19 c-22 18 -43 24 -52 15z"/>
<path d="M6366 4279 c-3 -13 -7 -56 -9 -95 -5 -90 -39 -155 -125 -242 -99
-100 -277 -172 -425 -172 -50 0 -113 -8 -156 -19 l-73 -19 9 26 c14 47 8 252
-11 350 -10 51 -20 91 -21 90 -2 -2 -6 -34 -9 -73 -12 -121 -90 -256 -189
-324 -23 -15 -76 -43 -117 -60 -86 -37 -186 -85 -215 -103 -42 -27 -164 -118
-181 -135 -11 -10 -33 -31 -50 -46 l-31 -28 -23 68 c-12 37 -32 86 -45 108
-12 22 -37 83 -54 135 -18 52 -35 102 -38 110 -3 8 -12 -31 -19 -87 -16 -127
-33 -165 -129 -283 -170 -209 -215 -299 -223 -451 -5 -111 5 -142 69 -211 22
-23 36 -44 32 -48 -93 -79 -303 -205 -420 -251 -94 -36 -175 -48 -274 -38 -41
4 -93 8 -115 8 -40 1 -42 -1 -48 -34 -4 -19 -20 -66 -36 -104 -17 -39 -30 -86
-30 -106 0 -43 108 -258 197 -390 90 -135 111 -176 144 -270 40 -118 39 -161
-5 -205 -19 -19 -39 -36 -45 -36 -6 -1 -15 -2 -21 -3 -5 0 -10 -5 -10 -10 0
-5 16 -5 38 1 167 43 175 49 174 140 0 81 -11 113 -117 348 -69 153 -78 184
-73 241 7 64 28 92 108 140 86 52 165 76 281 83 123 8 173 23 253 80 37 25 66
42 66 38 0 -4 -8 -21 -19 -37 -33 -55 -87 -247 -111 -396 -15 -94 14 -341 57
-488 22 -78 13 -131 -31 -186 -94 -114 -85 -277 20 -376 14 -13 30 -31 35 -40
8 -15 5 -15 -33 -2 -55 19 -180 18 -246 -2 -58 -17 -75 -12 -85 26 -6 24 43
86 60 76 6 -4 14 -22 17 -42 8 -43 26 -56 19 -13 -13 85 -35 97 -86 47 -17
-18 -33 -27 -34 -22 -2 5 -35 62 -73 126 -39 65 -70 121 -70 126 0 5 -7 14
-15 21 -8 7 -15 10 -15 7 0 -10 128 -244 194 -355 16 -27 32 -42 46 -42 11 0
20 4 20 9 0 14 33 23 40 10 17 -27 -11 -177 -42 -223 l-20 -31 31 32 c29 31
30 32 37 10 3 -12 13 -37 22 -55 15 -34 15 -34 -22 -68 -32 -30 -34 -34 -16
-34 12 0 19 4 15 10 -8 13 41 43 56 34 7 -4 10 -2 7 7 -3 8 15 25 46 44 34 20
64 50 91 90 28 42 54 67 85 83 56 28 104 26 108 -5 6 -40 -17 -98 -60 -151
l-43 -52 -7 37 -6 38 1 -44 c2 -50 -15 -69 -89 -97 -39 -15 -56 -16 -107 -7
-72 12 -86 9 -30 -6 79 -22 192 -1 219 40 6 9 11 -6 15 -46 l6 -60 3 70 3 70
7 -50 7 -50 1 56 c2 47 6 59 31 83 26 25 38 46 68 126 l10 25 22 -35 c31 -51
61 -159 61 -223 0 -302 -337 -486 -606 -330 -48 27 -134 115 -134 136 0 8 -6
20 -14 26 -25 21 -49 134 -44 209 7 91 25 128 61 124 22 -3 27 1 27 17 0 12 6
21 15 21 21 0 34 38 25 70 -14 49 -50 109 -73 121 l-22 12 26 9 c22 7 25 13
21 41 -7 49 -70 107 -117 107 -20 0 -68 53 -97 108 -13 25 -32 45 -45 48 -31
8 -29 21 8 39 17 9 29 19 26 21 -8 8 -56 -18 -61 -33 -4 -8 21 -49 58 -96 52
-68 61 -85 49 -95 -17 -16 -16 -98 1 -137 13 -27 13 -23 8 48 l-5 77 37 0 c65
0 116 -39 116 -88 0 -24 -17 -31 -73 -34 -37 -1 -38 -2 -9 -5 30 -4 47 -23 20
-23 -26 0 -88 -21 -88 -30 0 -4 25 -2 56 6 69 19 88 13 120 -37 56 -90 36
-136 -35 -80 -21 17 -47 31 -56 31 -13 0 -11 -5 11 -22 16 -12 37 -31 47 -43
19 -20 18 -20 -17 -23 -20 -2 -34 -8 -30 -13 8 -14 -16 -80 -27 -74 -5 4 -9 2
-9 -4 0 -5 5 -13 10 -16 8 -5 8 -11 1 -19 -6 -6 -10 -21 -10 -31 1 -11 -2 -83
-6 -160 -8 -147 8 -345 27 -345 6 0 8 13 4 32 -4 18 -9 114 -11 213 -5 175 -5
179 10 125 34 -121 117 -218 235 -274 59 -28 75 -31 169 -33 57 0 111 2 120 6
102 48 139 71 181 111 28 26 50 51 50 55 0 4 8 19 19 33 20 30 48 111 53 154
3 27 6 25 91 -54 80 -73 88 -84 83 -110 -6 -33 11 -38 22 -7 7 19 9 19 21 5
17 -21 26 -20 28 2 2 29 13 74 24 94 8 15 13 16 32 6 14 -7 17 -13 9 -16 -6
-2 -12 -15 -12 -29 l0 -25 18 22 c20 25 42 22 80 -10 31 -26 22 -36 -35 -44
-114 -17 -223 -49 -307 -92 -90 -46 -176 -104 -210 -143 -35 -39 4 -23 57 24
87 77 228 142 375 174 70 16 134 31 142 34 19 7 166 -162 187 -216 18 -43 39
-51 28 -10 -7 30 -61 107 -95 138 -13 11 -47 51 -78 88 -30 38 -75 82 -99 98
-42 26 -43 28 -22 32 13 3 51 10 83 16 33 6 76 21 95 34 81 53 95 54 586 38
143 -5 262 -7 264 -5 13 12 -99 24 -234 25 -88 1 -153 4 -144 8 8 3 27 16 42
27 31 25 34 58 17 208 -6 49 -9 91 -7 93 7 6 56 -18 114 -54 29 -18 81 -47
115 -64 35 -18 89 -49 120 -70 66 -45 81 -49 48 -14 -28 30 -25 31 37 4 100
-43 279 -33 367 20 27 16 41 17 106 9 157 -18 360 -52 358 -59 -2 -3 -44 -41
-94 -83 -58 -49 -101 -94 -115 -121 -26 -48 -62 -65 -98 -46 -42 23 -33 9 16
-24 55 -37 77 -59 46 -48 -16 6 -17 5 -3 -13 8 -10 46 -50 83 -89 38 -38 87
-94 109 -122 22 -29 45 -53 50 -53 17 0 -56 95 -134 173 -43 44 -78 86 -78 95
0 8 -7 23 -16 33 -14 16 -14 19 5 38 11 11 27 33 35 50 9 16 61 69 116 116 55
47 100 90 100 96 0 5 -11 14 -24 18 -29 12 -247 47 -338 56 -38 4 -68 11 -68
16 0 5 10 9 23 9 12 0 58 21 102 46 44 25 114 65 155 87 98 55 174 133 235
243 28 49 72 115 98 147 35 42 58 83 79 145 32 90 69 154 121 209 41 43 29 53
-13 11 -28 -27 -32 -29 -26 -10 4 12 3 22 -2 22 -5 0 -19 -26 -31 -59 -11 -32
-36 -78 -54 -102 -18 -24 -41 -57 -51 -74 l-17 -30 30 33 c17 18 31 29 31 24
0 -32 -39 -110 -74 -149 -24 -27 -58 -75 -76 -108 -81 -146 -158 -233 -247
-279 -26 -13 -86 -47 -132 -75 -47 -28 -87 -48 -89 -46 -3 2 7 18 21 35 39 46
50 100 51 250 0 149 -11 208 -49 246 -13 13 -22 24 -20 24 2 0 68 20 147 44
79 24 163 49 188 56 103 28 171 113 168 210 0 25 -3 34 -5 20 -22 -132 -81
-194 -215 -225 -36 -8 -117 -33 -180 -55 l-115 -41 -50 31 c-41 26 -60 31
-110 31 -59 1 -132 -25 -148 -51 -3 -5 -11 -10 -16 -10 -6 0 -1 13 10 29 25
35 27 57 5 65 -13 5 -10 13 15 50 17 25 31 47 31 51 0 3 -16 13 -35 21 -19 8
-35 18 -35 23 0 5 17 20 38 32 20 13 40 27 44 33 11 17 -11 44 -59 73 l-46 27
41 17 c23 10 42 23 42 28 0 14 -57 69 -80 76 -24 8 -26 21 -5 29 29 11 17 44
-20 57 -19 7 -35 16 -35 20 0 4 20 23 45 43 25 21 45 43 45 51 0 23 -154 59
-208 49 -16 -3 -35 1 -47 10 -19 15 -18 16 23 32 47 19 52 29 21 39 -15 5 -18
9 -9 15 17 11 4 16 -68 30 -78 16 -94 6 -18 -11 32 -7 56 -18 56 -25 0 -7 6
-14 13 -17 6 -2 -3 -11 -20 -21 -39 -20 -45 -53 -10 -60 12 -3 49 -7 82 -10
33 -2 85 -10 115 -16 l54 -13 -47 -41 c-57 -49 -60 -70 -12 -86 41 -13 43 -22
13 -44 -22 -16 -22 -17 -4 -29 10 -6 37 -25 60 -41 l41 -30 -43 -18 c-23 -10
-42 -25 -42 -32 0 -8 19 -26 43 -39 72 -42 75 -51 25 -79 -58 -31 -63 -63 -14
-83 l36 -15 -33 -46 c-30 -42 -31 -47 -14 -58 22 -17 22 -29 -3 -51 -11 -10
-20 -27 -20 -38 0 -11 -16 -50 -36 -86 -25 -46 -29 -60 -15 -46 11 11 29 38
40 60 l20 40 1 -30 c0 -30 1 -30 19 11 24 52 60 80 119 93 86 18 160 -15 221
-99 50 -70 65 -279 28 -405 -12 -43 -74 -111 -143 -158 -54 -37 -132 -57 -219
-57 -112 0 -159 20 -228 98 -26 28 -35 28 -43 -3 -3 -14 -8 -25 -10 -25 -10 0
-114 55 -189 100 -96 58 -130 69 -139 44 -3 -9 -1 -65 5 -124 11 -103 11 -109
-9 -142 -40 -65 -58 -74 -142 -67 -41 3 -61 6 -44 7 27 2 62 12 133 37 8 3 12
8 9 10 -3 3 -61 -7 -129 -21 -111 -24 -143 -27 -301 -25 -280 3 -323 21 -614
249 -134 105 -200 178 -246 270 -39 78 -35 128 17 237 41 87 42 113 14 232
-36 152 -49 254 -49 382 0 122 1 128 45 258 48 142 104 271 148 340 38 60 126
103 216 105 17 1 31 5 31 10 0 12 141 8 157 -4 7 -6 21 -3 36 7 18 11 36 14
66 9 22 -4 41 -8 41 -10 0 -19 -73 -191 -137 -324 -145 -300 -182 -384 -188
-435 -3 -27 -16 -81 -27 -119 -20 -65 -22 -67 -34 -45 -7 13 -13 45 -14 70 0
44 1 46 24 42 l24 -5 -5 84 c-3 45 -7 85 -9 87 -1 2 -7 -12 -13 -30 -5 -19
-10 -29 -10 -23 -1 12 -194 174 -206 174 -4 0 22 -32 56 -71 94 -103 155 -189
135 -189 -11 0 -16 -9 -16 -31 l0 -31 -41 36 c-58 49 -124 78 -194 83 -33 2
-55 1 -48 -4 8 -6 9 -21 3 -53 -26 -134 1 -289 68 -394 18 -28 32 -55 32 -61
0 -17 49 -59 97 -83 l42 -21 40 30 c47 33 51 34 51 14 0 -21 54 -79 145 -155
44 -37 132 -119 196 -182 114 -113 116 -116 123 -169 3 -30 2 -69 -4 -88 -14
-49 -6 -49 26 -1 23 34 29 55 30 109 2 36 4 89 5 116 1 28 -4 62 -11 75 -27
51 -111 148 -203 232 -117 108 -129 131 -117 220 13 87 57 208 105 283 82 130
208 285 292 362 86 79 89 83 146 211 l59 130 45 12 c57 14 173 25 173 16 0 -3
-15 -12 -32 -20 -18 -8 -27 -15 -20 -15 20 -1 82 27 82 37 0 33 -133 26 -222
-13 -13 -5 -6 17 27 81 25 48 45 95 45 104 0 34 -87 166 -180 270 -50 56 -108
144 -126 191 -9 24 -24 50 -32 57 -23 18 -82 15 -117 -6 -16 -10 -42 -22 -56
-25 -15 -4 -44 -25 -66 -46 -32 -32 -45 -58 -66 -128 -15 -48 -27 -98 -27
-110 0 -12 -4 -25 -10 -28 -5 -3 -10 3 -10 14 0 28 -38 126 -58 151 -9 12 -24
22 -32 24 -8 2 -26 7 -40 13 -14 5 -49 18 -78 29 l-54 19 7 44 c16 108 119
291 163 291 7 0 11 4 8 9 -8 13 123 124 222 188 45 30 117 70 160 89 42 19
104 47 137 62 108 49 213 168 246 280 7 23 15 42 19 42 18 0 27 -253 11 -309
-5 -18 -29 -36 -93 -68 -94 -47 -153 -99 -262 -228 -60 -71 -104 -135 -92
-135 2 0 30 33 62 73 105 129 213 229 286 265 38 18 72 30 78 27 5 -3 10 -2
10 3 0 18 117 44 235 52 100 7 136 14 219 44 124 46 176 76 242 142 68 69 113
161 122 250 l7 69 37 -65 c63 -114 81 -167 81 -250 -1 -74 -23 -208 -45 -263
-6 -15 -8 -30 -5 -34 3 -3 37 22 74 55 37 33 91 71 120 86 83 41 197 76 252
76 74 0 148 19 180 46 l28 23 6 -87 c3 -48 17 -134 31 -192 32 -131 33 -224 2
-388 -12 -68 -20 -125 -16 -127 3 -2 14 11 23 28 10 18 33 42 52 55 l35 22 0
-37 c0 -21 7 -77 15 -125 10 -65 11 -103 4 -145 -11 -67 -14 -277 -3 -294 8
-13 104 79 104 100 0 9 -17 -2 -44 -28 l-44 -43 -4 44 c-2 23 0 88 6 143 12
119 10 180 -6 260 -7 33 -11 84 -8 113 3 28 4 52 3 52 -2 0 -25 -16 -53 -36
-27 -20 -50 -31 -50 -25 0 6 7 53 16 103 20 113 14 230 -15 343 -12 45 -24
130 -28 193 -3 61 -10 112 -14 112 -5 0 -18 -13 -30 -30 -27 -36 -58 -47 -177
-60 -165 -18 -319 -85 -399 -174 -26 -28 -43 -45 -39 -37 16 26 46 207 46 273
0 79 -26 156 -90 269 -51 92 -58 98 -64 68z m-1691 -669 c15 -30 38 -86 51
-124 l24 -68 -41 -46 c-48 -55 -102 -166 -119 -243 -10 -46 -17 -57 -40 -66
-22 -8 -31 -22 -44 -65 -23 -79 -113 -197 -152 -198 -20 0 -81 75 -99 125 -17
43 -17 56 -6 134 18 131 76 238 226 416 83 99 124 191 126 285 0 32 2 30 23
-30 13 -36 36 -90 51 -120z m532 -472 c5 -7 17 -33 26 -58 19 -49 42 -82 166
-234 44 -55 93 -123 108 -152 l27 -52 -81 -169 c-45 -92 -93 -194 -107 -225
-19 -40 -50 -78 -105 -130 -166 -156 -333 -396 -381 -546 -30 -91 -40 -201
-22 -229 4 -7 67 -73 139 -147 73 -74 139 -148 147 -164 8 -15 17 -57 21 -93
3 -35 8 -86 11 -114 5 -49 -2 -59 -11 -15 -2 12 -11 33 -20 46 -23 35 -250
255 -325 314 -101 80 -126 117 -141 213 -12 71 3 208 32 302 10 33 24 93 30
134 9 63 31 115 141 340 213 439 255 597 207 784 -10 40 -40 77 -61 77 -7 0
-3 -7 9 -15 42 -30 61 -215 34 -328 l-14 -58 -43 7 c-29 4 -52 1 -73 -9 -29
-14 -31 -14 -31 2 0 22 16 108 25 136 5 15 5 17 -3 6 -21 -29 -24 37 -7 116
21 93 54 171 84 198 61 54 195 93 218 63z m-514 -131 c33 -17 70 -46 84 -64
14 -18 29 -30 34 -28 4 3 13 -14 20 -37 6 -24 16 -54 22 -68 13 -31 15 -40 23
-124 l7 -69 -76 7 c-47 5 -77 4 -81 -3 -4 -5 -32 -15 -64 -21 -31 -7 -73 -20
-93 -29 l-35 -17 33 55 c18 30 33 58 33 61 0 4 25 -2 56 -12 31 -10 59 -17 62
-14 6 7 -43 26 -66 26 -41 1 -44 14 -22 81 32 99 32 99 85 61 37 -26 44 -28
35 -12 -6 12 -23 26 -38 33 -38 16 -37 15 -17 37 15 16 15 20 3 20 -8 0 -23
-9 -32 -19 -10 -11 -25 -17 -34 -14 -12 3 -13 2 -5 -4 10 -7 7 -27 -13 -89
-15 -43 -34 -88 -44 -99 -9 -11 -48 -63 -85 -115 -76 -107 -105 -136 -188
-190 -60 -40 -96 -49 -277 -68 -146 -15 -307 -98 -331 -170 -25 -73 -16 -130
41 -258 112 -256 132 -309 137 -363 7 -80 -6 -105 -63 -125 -44 -15 -46 -15
-31 2 36 39 38 67 12 157 -33 112 -73 196 -150 308 -84 124 -159 256 -191 338
l-27 69 31 72 c16 40 35 93 42 117 10 40 13 43 38 37 15 -3 74 -8 132 -12 123
-7 185 5 315 66 275 126 511 323 546 454 6 23 16 47 22 54 15 19 81 6 150 -31z
m97 -38 c15 -28 5 -23 -15 7 -9 15 -12 23 -6 20 6 -4 16 -16 21 -27z m-315
-1199 c92 -54 92 -54 60 -91 -25 -31 -27 -38 -23 -108 2 -54 8 -83 22 -101
l18 -25 -5 47 c-2 26 -1 46 3 43 4 -2 10 -28 13 -56 7 -61 30 -99 57 -99 21 0
24 -8 14 -34 -7 -19 -24 -21 -24 -3 0 8 -12 19 -26 25 -14 7 -22 17 -19 22 3
6 1 10 -4 10 -19 0 -12 -46 13 -83 l25 -36 -22 -3 c-26 -5 -85 22 -108 48 -53
60 -84 186 -83 334 0 80 14 140 31 140 5 0 31 -14 58 -30z m171 -212 c-3 -13
-6 -32 -6 -43 0 -17 -2 -18 -15 -4 -12 12 -14 21 -6 42 13 33 36 37 27 5z
m-316 -704 c25 -8 64 -27 88 -43 l43 -28 -42 -6 c-54 -7 -83 -29 -141 -107
-44 -58 -101 -110 -120 -110 -4 0 -19 22 -32 49 -23 44 -25 57 -21 152 l4 104
33 7 c44 8 132 0 188 -18z m316 -190 c27 -14 58 -34 69 -44 35 -31 134 -91
178 -106 23 -9 69 -21 102 -28 47 -9 63 -17 72 -36 11 -23 10 -26 -15 -33 -48
-14 -137 2 -228 42 -49 21 -88 43 -87 49 2 6 -3 9 -10 6 -7 -2 -29 17 -48 43
-40 52 -91 133 -86 133 2 0 26 -12 53 -26z m107 -197 c28 -13 71 -32 94 -42
42 -18 43 -21 23 -70 -5 -11 -11 -37 -15 -58 -5 -32 -9 -36 -21 -27 -8 7 -14
16 -14 21 0 10 -107 112 -156 148 -41 31 -47 48 -38 100 l5 33 35 -40 c19 -23
58 -52 87 -65z m383 -12 c-25 -19 -31 -19 -46 0 -11 13 -7 15 26 15 36 -1 38
-2 20 -15z"/>
<path d="M4650 2710 c36 -11 50 -11 50 0 0 6 -17 10 -37 9 -34 -1 -35 -2 -13
-9z"/>
<path d="M6940 3638 c-22 -76 -50 -119 -128 -196 -53 -51 -64 -66 -37 -47 99
70 154 141 176 228 15 60 7 72 -11 15z"/>
<path d="M6493 3453 c9 -2 25 -2 35 0 9 3 1 5 -18 5 -19 0 -27 -2 -17 -5z"/>
<path d="M6423 3443 c9 -2 23 -2 30 0 6 3 -1 5 -18 5 -16 0 -22 -2 -12 -5z"/>
<path d="M6378 3433 c7 -3 16 -2 19 1 4 3 -2 6 -13 5 -11 0 -14 -3 -6 -6z"/>
<path d="M6230 3396 c-187 -64 -353 -169 -492 -310 -92 -92 -139 -177 -144
-259 l-3 -62 9 53 c26 139 148 284 368 432 74 51 157 96 202 111 98 32 192 68
175 68 -11 0 -63 -15 -115 -33z"/>
<path d="M6994 2758 c-1 -185 -12 -254 -60 -397 -46 -131 -112 -244 -212 -359
-83 -96 -76 -89 -145 -145 -63 -51 -63 -63 -1 -21 113 75 279 291 349 453 60
142 76 218 81 396 3 88 2 180 -3 203 -6 30 -8 -10 -9 -130z"/>
<path d="M6583 2797 c-50 -101 -227 -275 -348 -342 -98 -54 -180 -78 -250 -72
-47 5 -55 4 -35 -4 14 -6 58 -9 98 -6 58 3 86 11 142 40 153 78 333 244 390
358 17 33 30 63 28 65 -3 2 -14 -15 -25 -39z"/>
<path d="M7211 2444 c0 -11 3 -14 6 -6 3 7 2 16 -1 19 -3 4 -6 -2 -5 -13z"/>
<path d="M7196 2338 c-3 -40 -10 -140 -16 -223 -12 -180 -17 -237 -31 -333
-15 -104 -4 -100 15 5 22 120 58 623 45 623 -3 0 -9 -33 -13 -72z"/>
<path d="M5656 2371 c45 -9 90 -23 100 -31 18 -14 18 -13 0 8 -23 26 -75 42
-136 41 -41 -1 -37 -3 36 -18z"/>
<path d="M5738 2313 c7 -3 16 -2 19 1 4 3 -2 6 -13 5 -11 0 -14 -3 -6 -6z"/>
<path d="M5845 2251 c28 -11 57 -20 65 -20 23 0 -42 26 -81 33 -26 4 -23 2 16
-13z"/>
<path d="M4760 2154 c-7 -16 -17 -51 -23 -79 -8 -36 -21 -59 -46 -83 -41 -38
-20 -31 27 9 23 20 32 38 38 75 3 27 11 60 16 73 5 13 6 26 4 29 -3 3 -10 -8
-16 -24z"/>
<path d="M5336 2066 c-46 -53 -47 -55 -41 -108 7 -57 23 -152 31 -180 5 -16
-3 -18 -75 -18 l-80 0 -17 -57 c-9 -32 -29 -82 -45 -110 -16 -29 -29 -59 -29
-67 0 -9 -9 -20 -20 -26 -11 -6 -20 -16 -20 -22 0 -18 47 31 61 64 8 21 16 27
28 22 57 -23 91 -25 218 -14 73 7 149 9 169 6 20 -4 61 -4 92 0 l57 8 -45 13
c-48 14 -449 21 -482 8 -16 -6 -15 -1 5 46 13 30 29 67 36 82 10 26 15 28 64
27 115 -4 110 -5 102 43 -35 203 -35 210 -8 234 24 23 58 91 50 100 -3 2 -26
-21 -51 -51z"/>
<path d="M7131 1674 c0 -11 3 -14 6 -6 3 7 2 16 -1 19 -3 4 -6 -2 -5 -13z"/>
<path d="M7121 1634 c0 -11 3 -14 6 -6 3 7 2 16 -1 19 -3 4 -6 -2 -5 -13z"/>
<path d="M5120 1474 c-14 -3 -32 -8 -40 -11 -8 -3 -19 -5 -23 -4 -5 1 -5 -3
-2 -9 4 -7 -3 -14 -16 -18 l-24 -6 25 -7 c14 -4 66 -8 115 -8 80 -1 159 -12
170 -23 3 -2 -2 -26 -10 -53 -19 -61 -20 -159 -2 -174 19 -15 27 -4 27 41 0
21 4 38 9 38 4 0 23 -33 41 -72 18 -40 37 -76 44 -80 24 -16 56 -7 96 27 46
38 94 48 83 18 -18 -48 -83 -105 -83 -73 0 11 -32 1 -42 -14 -5 -7 -12 -4 -21
8 -14 19 -15 19 -33 2 -18 -18 -19 -18 -46 14 -23 29 -28 31 -34 16 -8 -20 18
-59 60 -90 43 -33 124 -28 178 10 59 40 81 90 86 191 3 46 6 83 9 83 18 0 103
-54 108 -68 19 -60 -7 -169 -52 -223 -14 -16 -49 -42 -77 -57 -43 -23 -63 -27
-131 -26 -67 0 -74 -1 -45 -9 44 -12 161 -3 220 16 25 8 57 18 72 21 35 8 112
107 144 186 17 42 24 79 24 124 l0 65 -37 10 c-21 6 -76 18 -123 27 -47 9
-161 38 -255 65 -93 27 -186 52 -205 55 -56 8 -183 13 -210 8z m19 -18 c-11
-9 -69 -15 -64 -6 3 6 20 10 37 10 17 0 29 -2 27 -4z m472 -217 c20 -20 20
-22 3 -40 -9 -10 -25 -19 -35 -19 -48 0 -63 28 -32 62 21 23 38 23 64 -3z
m-101 -209 c-8 -6 -24 -9 -35 -9 l-20 1 20 5 c11 3 24 9 29 14 5 5 12 6 15 3
3 -3 -1 -9 -9 -14z"/>
<path d="M3703 1279 c-45 -28 -41 -32 9 -9 43 19 68 17 68 -6 0 -8 5 -14 10
-14 13 0 13 6 0 31 -14 25 -47 24 -87 -2z"/>
<path d="M4340 1220 c-6 -11 -8 -20 -6 -20 3 0 10 9 16 20 6 11 8 20 6 20 -3
0 -10 -9 -16 -20z"/>
<path d="M4640 1186 c0 -9 5 -16 10 -16 6 0 10 4 10 9 0 6 -4 13 -10 16 -5 3
-10 -1 -10 -9z"/>
<path d="M5100 1138 c131 -129 190 -177 244 -197 32 -12 60 -20 62 -18 2 2
-21 16 -51 32 -30 15 -90 57 -133 92 -83 68 -146 115 -122 91z"/>
<path d="M6371 985 c-51 -86 -67 -105 -86 -105 -51 0 -127 -23 -153 -46 l-27
-24 50 22 c38 16 76 23 155 26 132 5 165 18 179 69 14 48 14 113 1 113 -5 0
-10 -18 -10 -40 0 -66 -23 -108 -63 -115 -18 -4 -46 -5 -61 -3 l-26 3 24 36
c35 51 90 158 84 164 -2 3 -33 -42 -67 -100z"/>
<path d="M4590 930 c0 -5 15 -17 33 -26 l32 -17 -24 27 c-25 27 -41 33 -41 16z"/>
<path d="M3695 756 l3 -109 32 -29 c18 -15 35 -28 37 -28 9 0 -19 40 -34 49
-13 7 -18 25 -20 73 -1 34 -7 83 -12 108 -7 35 -8 22 -6 -64z"/>
<path d="M5046 848 c-12 -7 -50 -8 -105 -5 -47 4 -102 3 -121 -1 -27 -6 -7
-10 85 -15 128 -7 165 -3 165 19 0 16 0 16 -24 2z"/>
<path d="M4743 843 c9 -2 23 -2 30 0 6 3 -1 5 -18 5 -16 0 -22 -2 -12 -5z"/>
<path d="M5436 764 c-5 -14 -4 -15 9 -4 17 14 19 20 6 20 -5 0 -12 -7 -15 -16z"/>
<path d="M5480 755 c0 -8 2 -15 4 -15 2 0 6 7 10 15 3 8 1 15 -4 15 -6 0 -10
-7 -10 -15z"/>
<path d="M5542 750 c0 -14 2 -19 5 -12 2 6 2 18 0 25 -3 6 -5 1 -5 -13z"/>
<path d="M6375 455 c47 -38 133 -82 170 -88 39 -5 38 -5 -20 23 -127 62 -169
80 -150 65z"/>
<path d="M3882 408 c-16 -22 -43 -79 -40 -87 2 -3 15 17 29 46 27 55 29 62 11
41z"/>
<path d="M6311 388 c15 -13 56 -44 92 -71 36 -26 92 -71 124 -100 l58 -52 -38
45 c-45 54 -159 147 -219 179 l-43 23 26 -24z"/>
<path d="M4280 55 c0 -19 27 -55 41 -55 16 0 17 3 7 25 -6 13 -15 22 -19 19
-5 -3 -9 0 -9 5 0 6 -4 11 -10 11 -5 0 -10 -2 -10 -5z"/>
</g>
</svg>
